# xmcd
#
# Track frame offsets: 
#        150
#        17204
#        35623
#        53946
#        73336
#        92427
#        113194
#        132471
#        151702
#        167170
#        180108
#        200015
#
# Disc length: 2956 seconds
#
# Revision: 0
# Processed by: cddbd v1.5.2PL0 Copyright (c) Steve Scherf et al.
# Submitted via: ExactAudioCopy v1.0b1
#
DISCID=a00b8a0c
DTITLE=Kevin Costner and Modern West - Turn It On
DYEAR=2010
DGENRE=Country
TTITLE0=Turn It On
TTITLE1=Ashes Turn To Stone
TTITLE2=Moon So High
TTITLE3=Maria Nay
TTITLE4=Let Me Be The One
TTITLE5=Top Down
TTITLE6=Red River
TTITLE7=Palisades
TTITLE8=The Way You Love Me 
TTITLE9=Saturday Night
TTITLE10=All I Want From You
TTITLE11=The Angels Came Down
EXTD=
EXTT0=
EXTT1=
EXTT2=
EXTT3=
EXTT4=
EXTT5=
EXTT6=
EXTT7=
EXTT8=
EXTT9=
EXTT10=
EXTT11=
PLAYORDER=
